<svg width="30" height="30" viewBox="0 0 30 30" fill="none" xmlns="http://www.w3.org/2000/svg">
<path d="M8.75 23.3333C7.14583 23.3333 5.84792 24.6458 5.84792 26.25C5.84792 27.8542 7.14583 29.1667 8.75 29.1667C10.3542 29.1667 11.6667 27.8542 11.6667 26.25C11.6667 24.6458 10.3542 23.3333 8.75 23.3333ZM0 0V2.91667H2.91667L8.16667 13.9854L6.19792 17.5583C5.96458 17.9667 5.83333 18.4479 5.83333 18.9583C5.83333 20.5625 7.14583 21.875 8.75 21.875H26.25V18.9583H9.3625C9.15833 18.9583 8.99792 18.7979 8.99792 18.5938L9.04167 18.4188L10.3542 16.0417H21.2188C22.3125 16.0417 23.275 15.4438 23.7708 14.5396L28.9917 5.075C29.1083 4.87083 29.1667 4.62292 29.1667 4.375C29.1667 3.57292 28.5104 2.91667 27.7083 2.91667H6.13958L4.76875 0H0ZM23.3333 23.3333C21.7292 23.3333 20.4312 24.6458 20.4312 26.25C20.4312 27.8542 21.7292 29.1667 23.3333 29.1667C24.9375 29.1667 26.25 27.8542 26.25 26.25C26.25 24.6458 24.9375 23.3333 23.3333 23.3333Z" fill="black"/>
</svg>
